<?xml version="1.0" encoding="UTF-8"?>
<svg id="Layer_1" xmlns="http://www.w3.org/2000/svg" version="1.1" viewBox="0 0 709 800">
  <!-- Generator: Adobe Illustrator 30.4.0, SVG Export Plug-In . SVG Version: 2.1.4 Build 226)  -->
  <defs>
    <style>
      .st0 {
        fill: #f05040;
      }
    </style>
  </defs>
  <path class="st0" d="M354.5,800c-10.41,0-20.81-2.68-30.09-8.04L30.09,622.08c-18.56-10.71-30.09-30.68-30.09-52.1V230.22c0-21.43,11.53-41.4,30.09-52.1L324.41,8.23c18.56-10.72,41.62-10.72,60.19,0l294.32,169.88c18.56,10.71,30.09,30.67,30.09,52.1v339.76c0,21.42-11.53,41.39-30.09,52.1l-294.32,169.88c-9.28,5.36-19.69,8.04-30.09,8.04ZM354.5,18.86c-7.18,0-14.35,1.85-20.75,5.54L39.43,194.28c-12.8,7.39-20.75,21.15-20.75,35.93v339.76c0,14.77,7.95,28.54,20.75,35.93l294.32,169.88c12.8,7.38,28.7,7.38,41.5,0l294.32-169.88c12.8-7.39,20.75-21.16,20.75-35.93V230.22c0-14.77-7.95-28.55-20.75-35.93L375.25,24.41c-6.4-3.7-13.58-5.54-20.75-5.54Z"/>
  <path class="st0" d="M378.46,200.95v175.92h169.23v44.93h-169.23v177.45h-47.93v-177.45h-169.23v-44.93h169.23v-175.92h47.93Z"/>
</svg>