<svg id="Layer_1" enable-background="new 0 0 512 512" height="512" viewBox="0 0 512 512" width="512" xmlns="http://www.w3.org/2000/svg"><path d="m221.5 421.9h-79.9c-8.3 0-15 6.7-15 15v19.1c0 8.3 6.7 15 15 15h79.9c8.3 0 15-6.7 15-15v-19.1c0-8.3-6.7-15-15-15zm-1.4 32.7h-77v-16.3h77zm16.1-323.4h107.2c10.8.2 10.8 16.2 0 16.4h-107.2c-10.8-.2-10.8-16.3 0-16.4zm-60.1 45.7h167.3c10.8.2 10.7 16.2 0 16.4h-167.3c-10.9-.2-10.8-16.2 0-16.4zm0 45.7h167.3c10.8.2 10.7 16.2 0 16.4h-167.3c-10.9-.2-10.8-16.2 0-16.4zm275.5-164.7-225.3-56.4c-7.7-2.1-16.3 3.1-18.1 10.9l-4.2 16.9-146 45.5c-3.2 1-5.9 3.3-7.4 6.3-1.6 3-1.9 6.5-.8 9.7l53.2 170.8c-8.9 2.3-15.5 10.4-15.5 20v208.6c0 11.5 9.3 20.8 20.8 20.8h295.6c11.5 0 20.8-9.3 20.8-20.8v-177.9c0-10-7-18.3-16.4-20.3 0 0 54.1-216 54.1-216 2-7.9-2.8-16.1-10.8-18.1zm-385.1 31.5 132.8-41.4-9.9 39.5h-46c-7 0-12.8 5.7-12.8 12.8v160.6h-10.7zm305.9 14.4v187.8h-149.7c-1.3 0-2.5-.6-3.3-1.5l-19.3-22.3c-3.9-4.6-9.7-7.2-15.8-7.2l-37.2.1v-156.9zm35.9 386.4c0 2.4-2 4.4-4.4 4.4h-295.6c-2.4 0-4.4-2-4.4-4.4v-208.6c.2-5.5 6.2-4.3 9.9-4.4 15.4 0 54.6-.2 70.5-.3 1.3 0 2.5.5 3.4 1.5l19.3 22.3c4 4.6 9.7 7.2 15.7 7.2h181.2c2.5 0 4.4 1.9 4.4 4.4zm-16.8-198.6h-2.7v-191.4c0-7-5.7-12.8-12.8-12.8h-169.7c3.5-14 14.1-56.3 17.5-69.6l222.4 55.7z"/></svg>